<mxfile host="Electron" agent="Mozilla/5.0 (Windows NT 10.0; Win64; x64) AppleWebKit/537.36 (KHTML, like Gecko) draw.io/24.7.17 Chrome/128.0.6613.36 Electron/32.0.1 Safari/537.36" version="24.7.17">
  <diagram name="Page-1" id="L5VvSbgIv-qnuuuo98ui">
    <mxGraphModel dx="2895" dy="2379" grid="1" gridSize="10" guides="1" tooltips="1" connect="1" arrows="1" fold="1" page="1" pageScale="1" pageWidth="827" pageHeight="1169" math="0" shadow="0">
      <root>
        <mxCell id="0" />
        <mxCell id="1" parent="0" />
        <mxCell id="lchFBxMFuY_sYou9zwt9-76" value="" style="endArrow=none;dashed=1;html=1;dashPattern=1 3;strokeWidth=2;rounded=0;entryX=0.5;entryY=1;entryDx=0;entryDy=0;" edge="1" parent="1" target="lchFBxMFuY_sYou9zwt9-75">
          <mxGeometry width="50" height="50" relative="1" as="geometry">
            <mxPoint x="440" y="817" as="sourcePoint" />
            <mxPoint x="440" y="337" as="targetPoint" />
          </mxGeometry>
        </mxCell>
        <mxCell id="lchFBxMFuY_sYou9zwt9-45" style="edgeStyle=orthogonalEdgeStyle;rounded=0;orthogonalLoop=1;jettySize=auto;html=1;entryX=0.5;entryY=0;entryDx=0;entryDy=0;" edge="1" parent="1" source="lchFBxMFuY_sYou9zwt9-25" target="lchFBxMFuY_sYou9zwt9-31">
          <mxGeometry relative="1" as="geometry" />
        </mxCell>
        <mxCell id="lchFBxMFuY_sYou9zwt9-46" value="" style="endArrow=none;dashed=1;html=1;dashPattern=1 3;strokeWidth=2;rounded=0;entryX=0.5;entryY=1;entryDx=0;entryDy=0;" edge="1" parent="1" source="lchFBxMFuY_sYou9zwt9-36" target="lchFBxMFuY_sYou9zwt9-34">
          <mxGeometry width="50" height="50" relative="1" as="geometry">
            <mxPoint x="440" y="-30" as="sourcePoint" />
            <mxPoint x="440" y="-380" as="targetPoint" />
          </mxGeometry>
        </mxCell>
        <mxCell id="lchFBxMFuY_sYou9zwt9-41" value="" style="endArrow=none;dashed=1;html=1;dashPattern=1 3;strokeWidth=2;rounded=0;entryX=0.5;entryY=1;entryDx=0;entryDy=0;" edge="1" parent="1" source="lchFBxMFuY_sYou9zwt9-75">
          <mxGeometry width="50" height="50" relative="1" as="geometry">
            <mxPoint x="440" y="630" as="sourcePoint" />
            <mxPoint x="440" y="150" as="targetPoint" />
          </mxGeometry>
        </mxCell>
        <mxCell id="e9xZvWaZCkbL1x6hrkqf-1" value="主线" style="rounded=0;whiteSpace=wrap;html=1;" parent="1" vertex="1">
          <mxGeometry x="380" y="-440" width="120" height="60" as="geometry" />
        </mxCell>
        <mxCell id="1iO8aYmXcBPLB2JT0Dpb-5" style="edgeStyle=orthogonalEdgeStyle;rounded=0;orthogonalLoop=1;jettySize=auto;html=1;exitX=0.75;exitY=1;exitDx=0;exitDy=0;dashed=1;" parent="1" source="1iO8aYmXcBPLB2JT0Dpb-1" target="1iO8aYmXcBPLB2JT0Dpb-3" edge="1">
          <mxGeometry relative="1" as="geometry">
            <Array as="points">
              <mxPoint x="110" y="-310" />
              <mxPoint x="90" y="-310" />
              <mxPoint x="90" y="-210" />
              <mxPoint x="760" y="-210" />
            </Array>
          </mxGeometry>
        </mxCell>
        <mxCell id="1iO8aYmXcBPLB2JT0Dpb-1" value="红魔馆线" style="rounded=0;whiteSpace=wrap;html=1;fillColor=#a20025;fontColor=#ffffff;strokeColor=#6F0000;" parent="1" vertex="1">
          <mxGeometry x="20" y="-330" width="120" height="60" as="geometry" />
        </mxCell>
        <mxCell id="1iO8aYmXcBPLB2JT0Dpb-3" value="大图书馆线" style="whiteSpace=wrap;html=1;fillColor=#d80073;fontColor=#ffffff;strokeColor=#A50040;" parent="1" vertex="1">
          <mxGeometry x="700" y="-30" width="120" height="60" as="geometry" />
        </mxCell>
        <mxCell id="lchFBxMFuY_sYou9zwt9-1" value="" style="endArrow=none;dashed=1;html=1;dashPattern=1 3;strokeWidth=2;rounded=0;entryX=0.5;entryY=1;entryDx=0;entryDy=0;" edge="1" parent="1" source="lchFBxMFuY_sYou9zwt9-34" target="e9xZvWaZCkbL1x6hrkqf-1">
          <mxGeometry width="50" height="50" relative="1" as="geometry">
            <mxPoint x="440" y="400" as="sourcePoint" />
            <mxPoint x="440" y="-320" as="targetPoint" />
          </mxGeometry>
        </mxCell>
        <mxCell id="lchFBxMFuY_sYou9zwt9-3" value="共通线&lt;br&gt;（无论主角在哪里都能触发）" style="text;html=1;align=center;verticalAlign=middle;resizable=0;points=[];autosize=1;strokeColor=none;fillColor=none;" vertex="1" parent="1">
          <mxGeometry x="910" y="-440" width="180" height="40" as="geometry" />
        </mxCell>
        <mxCell id="lchFBxMFuY_sYou9zwt9-4" value="私人线&lt;br&gt;（MS必须在所在国家才能触发）" style="text;html=1;align=center;verticalAlign=middle;resizable=0;points=[];autosize=1;strokeColor=none;fillColor=none;" vertex="1" parent="1">
          <mxGeometry x="140" y="-430" width="200" height="40" as="geometry" />
        </mxCell>
        <mxCell id="lchFBxMFuY_sYou9zwt9-17" value="" style="endArrow=none;dashed=1;html=1;dashPattern=1 3;strokeWidth=2;rounded=0;" edge="1" parent="1">
          <mxGeometry width="50" height="50" relative="1" as="geometry">
            <mxPoint x="200" y="427" as="sourcePoint" />
            <mxPoint x="1280" y="427" as="targetPoint" />
          </mxGeometry>
        </mxCell>
        <mxCell id="lchFBxMFuY_sYou9zwt9-18" value="中期" style="text;html=1;align=center;verticalAlign=middle;resizable=0;points=[];autosize=1;strokeColor=none;fillColor=none;" vertex="1" parent="1">
          <mxGeometry x="115" y="415" width="50" height="30" as="geometry" />
        </mxCell>
        <mxCell id="lchFBxMFuY_sYou9zwt9-22" value="地狱局势紧张" style="rounded=0;whiteSpace=wrap;html=1;fillColor=#f8cecc;strokeColor=#b85450;" vertex="1" parent="1">
          <mxGeometry x="380" y="400" width="120" height="60" as="geometry" />
        </mxCell>
        <mxCell id="lchFBxMFuY_sYou9zwt9-23" value="三途川泛洪" style="rounded=0;whiteSpace=wrap;html=1;fillColor=#d5e8d4;strokeColor=#82b366;" vertex="1" parent="1">
          <mxGeometry x="220" y="-30" width="120" height="60" as="geometry" />
        </mxCell>
        <mxCell id="lchFBxMFuY_sYou9zwt9-32" style="edgeStyle=orthogonalEdgeStyle;rounded=0;orthogonalLoop=1;jettySize=auto;html=1;entryX=0.5;entryY=0;entryDx=0;entryDy=0;" edge="1" parent="1" source="lchFBxMFuY_sYou9zwt9-24" target="lchFBxMFuY_sYou9zwt9-31">
          <mxGeometry relative="1" as="geometry" />
        </mxCell>
        <mxCell id="lchFBxMFuY_sYou9zwt9-24" value="打击地方据点" style="rounded=0;whiteSpace=wrap;html=1;fillColor=#d5e8d4;strokeColor=#82b366;" vertex="1" parent="1">
          <mxGeometry x="220" y="90" width="120" height="60" as="geometry" />
        </mxCell>
        <mxCell id="lchFBxMFuY_sYou9zwt9-25" value="是非曲直线" style="rounded=0;whiteSpace=wrap;html=1;fillColor=#d5e8d4;strokeColor=#82b366;" vertex="1" parent="1">
          <mxGeometry x="220" y="-360" width="120" height="60" as="geometry" />
        </mxCell>
        <mxCell id="lchFBxMFuY_sYou9zwt9-27" value="催眠人" style="rounded=0;whiteSpace=wrap;html=1;fillColor=#d5e8d4;strokeColor=#82b366;" vertex="1" parent="1">
          <mxGeometry x="220" y="-200" width="120" height="60" as="geometry" />
        </mxCell>
        <mxCell id="lchFBxMFuY_sYou9zwt9-44" style="edgeStyle=orthogonalEdgeStyle;rounded=0;orthogonalLoop=1;jettySize=auto;html=1;entryX=0.5;entryY=0;entryDx=0;entryDy=0;" edge="1" parent="1" source="lchFBxMFuY_sYou9zwt9-31" target="lchFBxMFuY_sYou9zwt9-43">
          <mxGeometry relative="1" as="geometry">
            <mxPoint x="280" y="517" as="targetPoint" />
          </mxGeometry>
        </mxCell>
        <mxCell id="lchFBxMFuY_sYou9zwt9-31" value="四季返回地狱" style="rounded=0;whiteSpace=wrap;html=1;fillColor=#d5e8d4;strokeColor=#82b366;" vertex="1" parent="1">
          <mxGeometry x="220" y="400" width="120" height="60" as="geometry" />
        </mxCell>
        <mxCell id="lchFBxMFuY_sYou9zwt9-33" value="地狱内战" style="rounded=0;whiteSpace=wrap;html=1;fillColor=#f8cecc;strokeColor=#b85450;" vertex="1" parent="1">
          <mxGeometry x="380" y="567" width="120" height="60" as="geometry" />
        </mxCell>
        <mxCell id="lchFBxMFuY_sYou9zwt9-35" value="外来人内乱" style="rounded=0;whiteSpace=wrap;html=1;fillColor=#dae8fc;strokeColor=#6c8ebf;" vertex="1" parent="1">
          <mxGeometry x="380" y="-200" width="120" height="60" as="geometry" />
        </mxCell>
        <mxCell id="lchFBxMFuY_sYou9zwt9-37" value="" style="endArrow=none;dashed=1;html=1;dashPattern=1 3;strokeWidth=2;rounded=0;entryX=0.5;entryY=1;entryDx=0;entryDy=0;" edge="1" parent="1" target="lchFBxMFuY_sYou9zwt9-36">
          <mxGeometry width="50" height="50" relative="1" as="geometry">
            <mxPoint x="440" y="90" as="sourcePoint" />
            <mxPoint x="440" y="-380" as="targetPoint" />
          </mxGeometry>
        </mxCell>
        <mxCell id="lchFBxMFuY_sYou9zwt9-36" value="三途川泛洪" style="rounded=0;whiteSpace=wrap;html=1;fillColor=#f8cecc;strokeColor=#b85450;" vertex="1" parent="1">
          <mxGeometry x="380" y="-30" width="120" height="60" as="geometry" />
        </mxCell>
        <mxCell id="lchFBxMFuY_sYou9zwt9-48" style="edgeStyle=orthogonalEdgeStyle;rounded=0;orthogonalLoop=1;jettySize=auto;html=1;dashed=1;" edge="1" parent="1" source="lchFBxMFuY_sYou9zwt9-66" target="1iO8aYmXcBPLB2JT0Dpb-3">
          <mxGeometry relative="1" as="geometry">
            <Array as="points">
              <mxPoint x="730" y="-80" />
            </Array>
          </mxGeometry>
        </mxCell>
        <mxCell id="lchFBxMFuY_sYou9zwt9-38" value="对待外来人的态度？" style="rhombus;whiteSpace=wrap;html=1;fillColor=#dae8fc;strokeColor=#6c8ebf;" vertex="1" parent="1">
          <mxGeometry x="370" y="-120" width="140" height="80" as="geometry" />
        </mxCell>
        <mxCell id="lchFBxMFuY_sYou9zwt9-56" style="edgeStyle=orthogonalEdgeStyle;rounded=0;orthogonalLoop=1;jettySize=auto;html=1;" edge="1" parent="1" source="lchFBxMFuY_sYou9zwt9-39" target="lchFBxMFuY_sYou9zwt9-25">
          <mxGeometry relative="1" as="geometry" />
        </mxCell>
        <mxCell id="lchFBxMFuY_sYou9zwt9-39" value="地方势力异常" style="rounded=0;whiteSpace=wrap;html=1;fillColor=#fff2cc;strokeColor=#d6b656;" vertex="1" parent="1">
          <mxGeometry x="380" y="-360" width="120" height="60" as="geometry" />
        </mxCell>
        <mxCell id="lchFBxMFuY_sYou9zwt9-43" value="MS的善恶？" style="rhombus;whiteSpace=wrap;html=1;fillColor=#d5e8d4;strokeColor=#82b366;" vertex="1" parent="1">
          <mxGeometry x="210" y="557" width="140" height="80" as="geometry" />
        </mxCell>
        <mxCell id="lchFBxMFuY_sYou9zwt9-34" value="外来人入侵" style="rounded=0;whiteSpace=wrap;html=1;fillColor=#dae8fc;strokeColor=#6c8ebf;" vertex="1" parent="1">
          <mxGeometry x="380" y="-280" width="120" height="60" as="geometry" />
        </mxCell>
        <mxCell id="lchFBxMFuY_sYou9zwt9-47" value="地方势力的邀请" style="rhombus;whiteSpace=wrap;html=1;fillColor=#fff2cc;strokeColor=#d6b656;" vertex="1" parent="1">
          <mxGeometry x="370" y="80" width="140" height="80" as="geometry" />
        </mxCell>
        <mxCell id="lchFBxMFuY_sYou9zwt9-55" style="edgeStyle=orthogonalEdgeStyle;rounded=0;orthogonalLoop=1;jettySize=auto;html=1;entryX=0.5;entryY=0;entryDx=0;entryDy=0;" edge="1" parent="1" source="lchFBxMFuY_sYou9zwt9-50" target="lchFBxMFuY_sYou9zwt9-54">
          <mxGeometry relative="1" as="geometry" />
        </mxCell>
        <mxCell id="lchFBxMFuY_sYou9zwt9-50" value="文文线" style="rounded=0;whiteSpace=wrap;html=1;fillColor=#f5f5f5;strokeColor=#666666;gradientColor=#b3b3b3;" vertex="1" parent="1">
          <mxGeometry x="1040" y="-360" width="120" height="60" as="geometry" />
        </mxCell>
        <mxCell id="lchFBxMFuY_sYou9zwt9-53" value="" style="endArrow=classic;html=1;rounded=0;entryX=0;entryY=1;entryDx=0;entryDy=0;" edge="1" parent="1" target="lchFBxMFuY_sYou9zwt9-50">
          <mxGeometry width="50" height="50" relative="1" as="geometry">
            <mxPoint x="440" y="-300" as="sourcePoint" />
            <mxPoint x="490" y="-350" as="targetPoint" />
            <Array as="points">
              <mxPoint x="760" y="-280" />
            </Array>
          </mxGeometry>
        </mxCell>
        <mxCell id="lchFBxMFuY_sYou9zwt9-70" style="edgeStyle=orthogonalEdgeStyle;rounded=0;orthogonalLoop=1;jettySize=auto;html=1;" edge="1" parent="1">
          <mxGeometry relative="1" as="geometry">
            <mxPoint x="1099.41" y="-50" as="sourcePoint" />
            <mxPoint x="1099.41" y="90" as="targetPoint" />
          </mxGeometry>
        </mxCell>
        <mxCell id="lchFBxMFuY_sYou9zwt9-54" value="恶意采访" style="rounded=0;whiteSpace=wrap;html=1;fillColor=#f5f5f5;strokeColor=#666666;gradientColor=#b3b3b3;" vertex="1" parent="1">
          <mxGeometry x="1040" y="-110" width="120" height="60" as="geometry" />
        </mxCell>
        <mxCell id="lchFBxMFuY_sYou9zwt9-58" value="不反对外来人" style="text;html=1;align=center;verticalAlign=middle;resizable=0;points=[];autosize=1;strokeColor=none;fillColor=none;" vertex="1" parent="1">
          <mxGeometry x="490" y="-102" width="100" height="30" as="geometry" />
        </mxCell>
        <mxCell id="lchFBxMFuY_sYou9zwt9-59" style="edgeStyle=orthogonalEdgeStyle;rounded=0;orthogonalLoop=1;jettySize=auto;html=1;" edge="1" parent="1" source="lchFBxMFuY_sYou9zwt9-60">
          <mxGeometry relative="1" as="geometry">
            <mxPoint x="1289.9999999999995" y="-150" as="targetPoint" />
          </mxGeometry>
        </mxCell>
        <mxCell id="lchFBxMFuY_sYou9zwt9-60" value="酒屋线" style="rounded=0;whiteSpace=wrap;html=1;fillColor=#a0522d;fontColor=#ffffff;strokeColor=#6D1F00;" vertex="1" parent="1">
          <mxGeometry x="1190" y="-360" width="120" height="60" as="geometry" />
        </mxCell>
        <mxCell id="lchFBxMFuY_sYou9zwt9-61" style="edgeStyle=orthogonalEdgeStyle;rounded=0;orthogonalLoop=1;jettySize=auto;html=1;" edge="1" parent="1" source="lchFBxMFuY_sYou9zwt9-62">
          <mxGeometry relative="1" as="geometry">
            <mxPoint x="1359.9999999999995" y="-150" as="targetPoint" />
          </mxGeometry>
        </mxCell>
        <mxCell id="lchFBxMFuY_sYou9zwt9-62" value="小碎骨线" style="rounded=0;whiteSpace=wrap;html=1;fillColor=#a0522d;fontColor=#ffffff;strokeColor=#6D1F00;" vertex="1" parent="1">
          <mxGeometry x="1350" y="-360" width="120" height="60" as="geometry" />
        </mxCell>
        <mxCell id="lchFBxMFuY_sYou9zwt9-63" style="edgeStyle=orthogonalEdgeStyle;rounded=0;orthogonalLoop=1;jettySize=auto;html=1;entryX=0.5;entryY=0;entryDx=0;entryDy=0;" edge="1" parent="1" source="lchFBxMFuY_sYou9zwt9-64" target="lchFBxMFuY_sYou9zwt9-65">
          <mxGeometry relative="1" as="geometry">
            <mxPoint x="1320" y="90" as="targetPoint" />
          </mxGeometry>
        </mxCell>
        <mxCell id="lchFBxMFuY_sYou9zwt9-64" value="厨艺竞争" style="rounded=0;whiteSpace=wrap;html=1;fillColor=#a0522d;fontColor=#ffffff;strokeColor=#6D1F00;" vertex="1" parent="1">
          <mxGeometry x="1260" y="-150" width="120" height="60" as="geometry" />
        </mxCell>
        <mxCell id="lchFBxMFuY_sYou9zwt9-65" value="厨房线" style="whiteSpace=wrap;html=1;fillColor=#a0522d;fontColor=#ffffff;strokeColor=#6D1F00;" vertex="1" parent="1">
          <mxGeometry x="1260" y="437" width="120" height="60" as="geometry" />
        </mxCell>
        <mxCell id="lchFBxMFuY_sYou9zwt9-67" value="" style="edgeStyle=orthogonalEdgeStyle;rounded=0;orthogonalLoop=1;jettySize=auto;html=1;" edge="1" parent="1" source="lchFBxMFuY_sYou9zwt9-38" target="lchFBxMFuY_sYou9zwt9-66">
          <mxGeometry relative="1" as="geometry">
            <mxPoint x="510" y="-80" as="sourcePoint" />
            <mxPoint x="800" y="-30" as="targetPoint" />
            <Array as="points" />
          </mxGeometry>
        </mxCell>
        <mxCell id="lchFBxMFuY_sYou9zwt9-72" style="edgeStyle=orthogonalEdgeStyle;rounded=0;orthogonalLoop=1;jettySize=auto;html=1;dashed=1;" edge="1" parent="1" source="lchFBxMFuY_sYou9zwt9-66" target="lchFBxMFuY_sYou9zwt9-69">
          <mxGeometry relative="1" as="geometry">
            <Array as="points">
              <mxPoint x="640" y="-40" />
              <mxPoint x="1070" y="-40" />
            </Array>
          </mxGeometry>
        </mxCell>
        <mxCell id="lchFBxMFuY_sYou9zwt9-66" value="外来人线&lt;div&gt;合集&lt;/div&gt;" style="rounded=0;whiteSpace=wrap;html=1;" vertex="1" parent="1">
          <mxGeometry x="580" y="-110" width="120" height="60" as="geometry" />
        </mxCell>
        <mxCell id="lchFBxMFuY_sYou9zwt9-71" style="edgeStyle=orthogonalEdgeStyle;rounded=0;orthogonalLoop=1;jettySize=auto;html=1;" edge="1" parent="1" source="lchFBxMFuY_sYou9zwt9-69">
          <mxGeometry relative="1" as="geometry">
            <mxPoint x="1100" y="250" as="targetPoint" />
          </mxGeometry>
        </mxCell>
        <mxCell id="lchFBxMFuY_sYou9zwt9-69" value="输家的下场" style="rounded=0;whiteSpace=wrap;html=1;fillColor=#f5f5f5;strokeColor=#666666;gradientColor=#b3b3b3;" vertex="1" parent="1">
          <mxGeometry x="1040" y="90" width="120" height="60" as="geometry" />
        </mxCell>
        <mxCell id="lchFBxMFuY_sYou9zwt9-74" style="edgeStyle=orthogonalEdgeStyle;rounded=0;orthogonalLoop=1;jettySize=auto;html=1;entryX=0.75;entryY=0;entryDx=0;entryDy=0;dashed=1;" edge="1" parent="1" source="lchFBxMFuY_sYou9zwt9-73" target="lchFBxMFuY_sYou9zwt9-69">
          <mxGeometry relative="1" as="geometry" />
        </mxCell>
        <mxCell id="lchFBxMFuY_sYou9zwt9-73" value="果的态度？" style="rounded=0;whiteSpace=wrap;html=1;fillColor=#f5f5f5;strokeColor=#666666;gradientColor=#b3b3b3;" vertex="1" parent="1">
          <mxGeometry x="1180" width="80" height="20" as="geometry" />
        </mxCell>
        <mxCell id="lchFBxMFuY_sYou9zwt9-75" value="外来人内乱" style="rounded=0;whiteSpace=wrap;html=1;fillColor=#dae8fc;strokeColor=#6c8ebf;" vertex="1" parent="1">
          <mxGeometry x="380" y="487" width="120" height="60" as="geometry" />
        </mxCell>
        <mxCell id="lchFBxMFuY_sYou9zwt9-77" value="文陷落" style="rounded=0;whiteSpace=wrap;html=1;fillColor=#f5f5f5;strokeColor=#666666;gradientColor=#b3b3b3;" vertex="1" parent="1">
          <mxGeometry x="1040" y="250" width="120" height="60" as="geometry" />
        </mxCell>
        <mxCell id="lchFBxMFuY_sYou9zwt9-78" value="四季陷落" style="rounded=0;whiteSpace=wrap;html=1;fillColor=#d5e8d4;strokeColor=#82b366;" vertex="1" parent="1">
          <mxGeometry x="220" y="200" width="120" height="60" as="geometry" />
        </mxCell>
        <mxCell id="lchFBxMFuY_sYou9zwt9-79" value="魔理沙线" style="rounded=0;whiteSpace=wrap;html=1;fillColor=#ffcd28;gradientColor=#ffa500;strokeColor=#d79b00;" vertex="1" parent="1">
          <mxGeometry x="1510" y="-360" width="120" height="60" as="geometry" />
        </mxCell>
        <mxCell id="lchFBxMFuY_sYou9zwt9-80" value="灵梦线*" style="rounded=0;whiteSpace=wrap;html=1;" vertex="1" parent="1">
          <mxGeometry x="1660" y="-450" width="120" height="60" as="geometry" />
        </mxCell>
        <mxCell id="lchFBxMFuY_sYou9zwt9-81" value="紫线" style="rounded=0;whiteSpace=wrap;html=1;fillColor=#e6d0de;gradientColor=#d5739d;strokeColor=#996185;" vertex="1" parent="1">
          <mxGeometry x="1660" y="-360" width="120" height="60" as="geometry" />
        </mxCell>
        <mxCell id="lchFBxMFuY_sYou9zwt9-82" value="白玉楼线" style="rounded=0;whiteSpace=wrap;html=1;fillColor=#fad9d5;strokeColor=#ae4132;" vertex="1" parent="1">
          <mxGeometry x="1810" y="-360" width="120" height="60" as="geometry" />
        </mxCell>
        <mxCell id="lchFBxMFuY_sYou9zwt9-84" style="edgeStyle=orthogonalEdgeStyle;rounded=0;orthogonalLoop=1;jettySize=auto;html=1;entryX=0.75;entryY=0;entryDx=0;entryDy=0;dashed=1;" edge="1" parent="1" source="lchFBxMFuY_sYou9zwt9-83" target="1iO8aYmXcBPLB2JT0Dpb-3">
          <mxGeometry relative="1" as="geometry">
            <Array as="points">
              <mxPoint x="-100" y="-240" />
              <mxPoint x="790" y="-240" />
            </Array>
          </mxGeometry>
        </mxCell>
        <mxCell id="lchFBxMFuY_sYou9zwt9-83" value="人里线" style="rounded=0;whiteSpace=wrap;html=1;fillColor=#f0a30a;strokeColor=#BD7000;fontColor=#000000;" vertex="1" parent="1">
          <mxGeometry x="-160" y="-330" width="120" height="60" as="geometry" />
        </mxCell>
        <mxCell id="lchFBxMFuY_sYou9zwt9-87" style="edgeStyle=orthogonalEdgeStyle;rounded=0;orthogonalLoop=1;jettySize=auto;html=1;" edge="1" parent="1" source="lchFBxMFuY_sYou9zwt9-85" target="lchFBxMFuY_sYou9zwt9-86">
          <mxGeometry relative="1" as="geometry" />
        </mxCell>
        <mxCell id="lchFBxMFuY_sYou9zwt9-85" value="永远亭线" style="rounded=0;whiteSpace=wrap;html=1;" vertex="1" parent="1">
          <mxGeometry x="-340" y="-330" width="120" height="60" as="geometry" />
        </mxCell>
        <mxCell id="lchFBxMFuY_sYou9zwt9-88" style="edgeStyle=orthogonalEdgeStyle;rounded=0;orthogonalLoop=1;jettySize=auto;html=1;entryX=0;entryY=0.5;entryDx=0;entryDy=0;dashed=1;" edge="1" parent="1" source="lchFBxMFuY_sYou9zwt9-86" target="lchFBxMFuY_sYou9zwt9-83">
          <mxGeometry relative="1" as="geometry" />
        </mxCell>
        <mxCell id="lchFBxMFuY_sYou9zwt9-86" value="第一个难题" style="rounded=0;whiteSpace=wrap;html=1;" vertex="1" parent="1">
          <mxGeometry x="-340" y="-190" width="120" height="60" as="geometry" />
        </mxCell>
      </root>
    </mxGraphModel>
  </diagram>
</mxfile>
